# xmcd
#
# Track frame offsets:
#	150
#	14375
#	33662
#	47750
#	66237
#	81987
#	99015
#	113112
#
# Disc length: 1723 seconds
#
# Revision: 1
# Processed by: cddbd v1.5.1PL0 Copyright (c) Steve Scherf et al.
# Submitted via: EasyCDDAExtractor 7.1.0.1
#
DISCID=6006b908
DTITLE=Steve Wariner - The Best Of...
DYEAR=2000
DGENRE=Country
TTITLE0=What I Didn't Do
TTITLE1=Starting Over Again
TTITLE2=Lynda
TTITLE3=Hold On(A Little Longer)
TTITLE4=Heart Trouble
TTITLE5=When I Could Come Home To You
TTITLE6=The Hand That Rocks The Cradle(ft.G.Campbell)
TTITLE7=The Domino Theory
EXTD=
EXTT0=
EXTT1=
EXTT2=
EXTT3=
EXTT4=
EXTT5=
EXTT6=
EXTT7=
PLAYORDER=
